<mxfile host="app.diagrams.net" modified="2022-12-28T03:14:06.647Z" agent="5.0 (Windows NT 10.0; Win64; x64) AppleWebKit/537.36 (KHTML, like Gecko) Chrome/108.0.0.0 Safari/537.36" version="20.7.4" etag="2BikPUmdn4eK1WkufBvh" type="github">
  <diagram id="S8Ht2SmmF61pydqy52Ag" name="Page-1">
    <mxGraphModel dx="265" dy="745" grid="1" gridSize="10" guides="1" tooltips="1" connect="1" arrows="1" fold="1" page="1" pageScale="1" pageWidth="1169" pageHeight="827" math="0" shadow="0">
      <root>
        <mxCell id="0" />
        <mxCell id="1" parent="0" />
        <mxCell id="fEKbUCwAnwkRpt74_J-G-1" value="" style="edgeStyle=orthogonalEdgeStyle;rounded=0;orthogonalLoop=1;jettySize=auto;html=1;fontFamily=Baloo;fontSource=https://fonts.googleapis.com/css?family=Baloo;fontStyle=0;labelBackgroundColor=none;fontColor=default;fillColor=none;strokeWidth=2;" edge="1" parent="1" source="fEKbUCwAnwkRpt74_J-G-2" target="fEKbUCwAnwkRpt74_J-G-4">
          <mxGeometry relative="1" as="geometry" />
        </mxCell>
        <mxCell id="fEKbUCwAnwkRpt74_J-G-2" value="Swish" style="rounded=1;whiteSpace=wrap;html=1;fontSize=12;glass=0;strokeWidth=2;shadow=0;fontFamily=Baloo;fontStyle=0;fontSource=https://fonts.googleapis.com/css?family=Baloo;labelBackgroundColor=none;fillColor=none;" vertex="1" parent="1">
          <mxGeometry x="1278" y="20" width="117" height="40" as="geometry" />
        </mxCell>
        <mxCell id="fEKbUCwAnwkRpt74_J-G-3" value="" style="edgeStyle=orthogonalEdgeStyle;rounded=0;orthogonalLoop=1;jettySize=auto;html=1;fontFamily=Baloo;fontSource=https://fonts.googleapis.com/css?family=Baloo;fontStyle=0;labelBackgroundColor=none;fontColor=default;fillColor=none;strokeWidth=2;" edge="1" parent="1" source="fEKbUCwAnwkRpt74_J-G-4" target="fEKbUCwAnwkRpt74_J-G-5">
          <mxGeometry relative="1" as="geometry" />
        </mxCell>
        <mxCell id="fEKbUCwAnwkRpt74_J-G-4" value="On boarding" style="rounded=1;whiteSpace=wrap;html=1;fontSize=12;glass=0;strokeWidth=2;shadow=0;fontFamily=Baloo;fontStyle=0;fontSource=https://fonts.googleapis.com/css?family=Baloo;labelBackgroundColor=none;fillColor=none;" vertex="1" parent="1">
          <mxGeometry x="1278" y="90" width="117" height="40" as="geometry" />
        </mxCell>
        <mxCell id="fEKbUCwAnwkRpt74_J-G-5" value="User" style="rhombus;whiteSpace=wrap;html=1;rounded=1;glass=0;strokeWidth=2;shadow=0;fontFamily=Baloo;fontStyle=0;fontSource=https://fonts.googleapis.com/css?family=Baloo;labelBackgroundColor=none;fillColor=none;" vertex="1" parent="1">
          <mxGeometry x="1298" y="160" width="77" height="80" as="geometry" />
        </mxCell>
        <mxCell id="fEKbUCwAnwkRpt74_J-G-6" value="" style="endArrow=none;html=1;rounded=0;snapToPoint=0;entryX=0.504;entryY=0.955;entryDx=0;entryDy=0;entryPerimeter=0;fontFamily=Baloo;fontSource=https://fonts.googleapis.com/css?family=Baloo;fontStyle=0;labelBackgroundColor=none;fontColor=default;fillColor=none;strokeWidth=2;" edge="1" parent="1" target="fEKbUCwAnwkRpt74_J-G-5">
          <mxGeometry width="50" height="50" relative="1" as="geometry">
            <mxPoint x="1338" y="260" as="sourcePoint" />
            <mxPoint x="1338" y="240" as="targetPoint" />
          </mxGeometry>
        </mxCell>
        <mxCell id="fEKbUCwAnwkRpt74_J-G-7" value="" style="endArrow=none;html=1;rounded=0;fontFamily=Baloo;fontSource=https://fonts.googleapis.com/css?family=Baloo;fontStyle=0;labelBackgroundColor=none;fontColor=default;fillColor=none;strokeWidth=2;" edge="1" parent="1">
          <mxGeometry width="50" height="50" relative="1" as="geometry">
            <mxPoint x="1288" y="260" as="sourcePoint" />
            <mxPoint x="1398" y="260" as="targetPoint" />
            <Array as="points">
              <mxPoint x="1338" y="260" />
            </Array>
          </mxGeometry>
        </mxCell>
        <mxCell id="fEKbUCwAnwkRpt74_J-G-8" value="" style="endArrow=none;html=1;rounded=0;fontFamily=Baloo;fontSource=https://fonts.googleapis.com/css?family=Baloo;fontStyle=0;labelBackgroundColor=none;fontColor=default;fillColor=none;strokeWidth=2;" edge="1" parent="1">
          <mxGeometry width="50" height="50" relative="1" as="geometry">
            <mxPoint x="1397.62" y="280" as="sourcePoint" />
            <mxPoint x="1397.62" y="260" as="targetPoint" />
          </mxGeometry>
        </mxCell>
        <mxCell id="fEKbUCwAnwkRpt74_J-G-9" value="" style="endArrow=none;html=1;rounded=0;fontFamily=Baloo;fontSource=https://fonts.googleapis.com/css?family=Baloo;fontStyle=0;labelBackgroundColor=none;fontColor=default;fillColor=none;strokeWidth=2;" edge="1" parent="1">
          <mxGeometry y="30" width="50" height="50" relative="1" as="geometry">
            <mxPoint x="1288" y="280" as="sourcePoint" />
            <mxPoint x="1288" y="260" as="targetPoint" />
            <mxPoint as="offset" />
          </mxGeometry>
        </mxCell>
        <mxCell id="fEKbUCwAnwkRpt74_J-G-10" value="Returing user" style="rounded=1;whiteSpace=wrap;html=1;fontSize=12;glass=0;strokeWidth=2;shadow=0;fontFamily=Baloo;fontStyle=0;fontSource=https://fonts.googleapis.com/css?family=Baloo;labelBackgroundColor=none;fillColor=none;" vertex="1" parent="1">
          <mxGeometry x="1208" y="280" width="117" height="40" as="geometry" />
        </mxCell>
        <mxCell id="fEKbUCwAnwkRpt74_J-G-11" value="" style="edgeStyle=orthogonalEdgeStyle;rounded=0;orthogonalLoop=1;jettySize=auto;html=1;fontFamily=Baloo;fontSource=https://fonts.googleapis.com/css?family=Baloo;fontStyle=0;labelBackgroundColor=none;fontColor=default;fillColor=none;strokeWidth=2;" edge="1" parent="1" source="fEKbUCwAnwkRpt74_J-G-12" target="fEKbUCwAnwkRpt74_J-G-14">
          <mxGeometry relative="1" as="geometry" />
        </mxCell>
        <mxCell id="fEKbUCwAnwkRpt74_J-G-12" value="New user/Sign up" style="rounded=1;whiteSpace=wrap;html=1;fontSize=12;glass=0;strokeWidth=2;shadow=0;fontFamily=Baloo;fontStyle=0;fontSource=https://fonts.googleapis.com/css?family=Baloo;labelBackgroundColor=none;fillColor=none;" vertex="1" parent="1">
          <mxGeometry x="1378" y="280" width="117" height="40" as="geometry" />
        </mxCell>
        <mxCell id="fEKbUCwAnwkRpt74_J-G-13" value="" style="edgeStyle=orthogonalEdgeStyle;rounded=0;orthogonalLoop=1;jettySize=auto;html=1;fontFamily=Baloo;fontSource=https://fonts.googleapis.com/css?family=Baloo;fontStyle=0;labelBackgroundColor=none;fontColor=default;fillColor=none;strokeWidth=2;" edge="1" parent="1" source="fEKbUCwAnwkRpt74_J-G-14" target="fEKbUCwAnwkRpt74_J-G-16">
          <mxGeometry relative="1" as="geometry" />
        </mxCell>
        <mxCell id="fEKbUCwAnwkRpt74_J-G-14" value="Username/Pasword" style="rounded=1;whiteSpace=wrap;html=1;fontSize=12;glass=0;strokeWidth=2;shadow=0;fontFamily=Baloo;fontStyle=0;fontSource=https://fonts.googleapis.com/css?family=Baloo;labelBackgroundColor=none;fillColor=none;" vertex="1" parent="1">
          <mxGeometry x="1378" y="340" width="117" height="40" as="geometry" />
        </mxCell>
        <mxCell id="fEKbUCwAnwkRpt74_J-G-15" value="" style="edgeStyle=orthogonalEdgeStyle;rounded=0;orthogonalLoop=1;jettySize=auto;html=1;fontFamily=Baloo;fontSource=https://fonts.googleapis.com/css?family=Baloo;fontStyle=0;labelBackgroundColor=none;fontColor=default;fillColor=none;strokeWidth=2;" edge="1" parent="1" source="fEKbUCwAnwkRpt74_J-G-16" target="fEKbUCwAnwkRpt74_J-G-18">
          <mxGeometry relative="1" as="geometry" />
        </mxCell>
        <mxCell id="fEKbUCwAnwkRpt74_J-G-16" value="E-mail" style="rounded=1;whiteSpace=wrap;html=1;fontSize=12;glass=0;strokeWidth=2;shadow=0;fontFamily=Baloo;fontStyle=0;fontSource=https://fonts.googleapis.com/css?family=Baloo;labelBackgroundColor=none;fillColor=none;" vertex="1" parent="1">
          <mxGeometry x="1378" y="400" width="117" height="40" as="geometry" />
        </mxCell>
        <mxCell id="fEKbUCwAnwkRpt74_J-G-17" value="" style="edgeStyle=orthogonalEdgeStyle;rounded=0;orthogonalLoop=1;jettySize=auto;html=1;fontFamily=Baloo;fontSource=https://fonts.googleapis.com/css?family=Baloo;fontStyle=0;labelBackgroundColor=none;fontColor=default;fillColor=none;strokeWidth=2;" edge="1" parent="1" source="fEKbUCwAnwkRpt74_J-G-18" target="fEKbUCwAnwkRpt74_J-G-20">
          <mxGeometry relative="1" as="geometry" />
        </mxCell>
        <mxCell id="fEKbUCwAnwkRpt74_J-G-18" value="Add bank/phone number" style="rounded=1;whiteSpace=wrap;html=1;fontSize=12;glass=0;strokeWidth=2;shadow=0;fontFamily=Baloo;fontStyle=0;fontSource=https://fonts.googleapis.com/css?family=Baloo;labelBackgroundColor=none;fillColor=none;" vertex="1" parent="1">
          <mxGeometry x="1378" y="460" width="117" height="40" as="geometry" />
        </mxCell>
        <mxCell id="fEKbUCwAnwkRpt74_J-G-19" value="" style="edgeStyle=orthogonalEdgeStyle;rounded=0;orthogonalLoop=1;jettySize=auto;html=1;fontFamily=Baloo;fontSource=https://fonts.googleapis.com/css?family=Baloo;fontStyle=0;labelBackgroundColor=none;fontColor=default;fillColor=none;strokeWidth=2;" edge="1" parent="1" source="fEKbUCwAnwkRpt74_J-G-20" target="fEKbUCwAnwkRpt74_J-G-21">
          <mxGeometry relative="1" as="geometry" />
        </mxCell>
        <mxCell id="fEKbUCwAnwkRpt74_J-G-20" value="E-mail confirmation" style="rounded=1;whiteSpace=wrap;html=1;fontSize=12;glass=0;strokeWidth=2;shadow=0;fontFamily=Baloo;fontStyle=0;fontSource=https://fonts.googleapis.com/css?family=Baloo;labelBackgroundColor=none;fillColor=none;" vertex="1" parent="1">
          <mxGeometry x="1378" y="520" width="117" height="40" as="geometry" />
        </mxCell>
        <mxCell id="fEKbUCwAnwkRpt74_J-G-21" value="sign in" style="rounded=1;whiteSpace=wrap;html=1;fontSize=12;glass=0;strokeWidth=2;shadow=0;fontFamily=Baloo;fontStyle=0;fontSource=https://fonts.googleapis.com/css?family=Baloo;labelBackgroundColor=none;fillColor=none;" vertex="1" parent="1">
          <mxGeometry x="1288" y="620" width="117" height="40" as="geometry" />
        </mxCell>
        <mxCell id="fEKbUCwAnwkRpt74_J-G-22" value="" style="endArrow=classic;html=1;rounded=0;exitX=0.5;exitY=1;exitDx=0;exitDy=0;entryX=0;entryY=0.25;entryDx=0;entryDy=0;fontFamily=Baloo;fontSource=https://fonts.googleapis.com/css?family=Baloo;fontStyle=0;labelBackgroundColor=none;fontColor=default;fillColor=none;strokeWidth=2;" edge="1" parent="1" source="fEKbUCwAnwkRpt74_J-G-10" target="fEKbUCwAnwkRpt74_J-G-21">
          <mxGeometry width="50" height="50" relative="1" as="geometry">
            <mxPoint x="1338" y="350" as="sourcePoint" />
            <mxPoint x="1268" y="630" as="targetPoint" />
            <Array as="points">
              <mxPoint x="1268" y="630" />
            </Array>
          </mxGeometry>
        </mxCell>
      </root>
    </mxGraphModel>
  </diagram>
</mxfile>
